<svg xmlns="http://www.w3.org/2000/svg" viewBox="-20 -20 515.65 483.07" width="100%" height="100%" fill="none" style="background: transparent;"><path fill="#ffffff" d="M460.77,19.73C431.12-13,363-3.58,285.05,37.64a158.81,158.81,0,0,0-229,203.87c-53.35,76.82-72,147.77-41.21,181.83,45.62,50.4,182.43.91,305.56-110.54S506.4,70.14,460.77,19.73ZM150.13,51.52c-13.29,27.78.59,50.35,33.94,48.48-33.35,1.87-70.89,28.73-87,62.32,16.08-33.59,4.26-57.68-23.61-56.12C101.36,104.64,136.84,79.3,150.13,51.52ZM317.3,309.34C208.56,407.77,84.82,448.25,40.92,399.76c-27.17-30-17.36-87.1,19.84-149.59a158.8,158.8,0,1,0,233-206.41c61.75-26.71,115.17-29,141-.45C478.62,91.8,426.05,210.91,317.3,309.34Z"/></svg>